<svg xmlns="http://www.w3.org/2000/svg" width="708" height="440.963" viewBox="0 0 708 440.963" enable-background="new 0 0 708 440.962616"><filter id="a"><feGaussianBlur stdDeviation="4"/></filter><path d="M411.291 349.005c-11.016-2.526-18.812-7.64-24.052-14.678-30.208-40.53 24.747-144.158 39.33-171.21.852-1.546 1.23-2.62 1.2-3.25-.474-9.281-93.023 80.617-141.318 127.175-2.494 2.4-4.86 4.703-7.102 6.85-10.795 10.385-18.434 17.613-20.77 19.507-6.155 4.956-9.501 13.857-14.583 21.496-1.705 2.557-3.598 4.987-5.871 7.07-5.114 4.735-12.09 7.766-22.917 6.882-1.325-.095-2.083-.821-2.335-2.115-.285-1.136-.095-2.746.505-4.766.41-1.579 1.073-3.41 1.925-5.461.221-.505.474-1.042.726-1.61 6.976-15.625 24.463-43.055 44.76-74.999a4846.843 4846.843 0 0 0 18.118-28.756c2.525-3.977 5.019-8.017 7.544-12.09 52.114-84.278 102.429-178.248 39.33-176.89-12.91.284-26.104 1.83-39.33 4.45-2.367.442-4.735.916-7.102 1.484-25.442 5.618-50.978 14.93-74.999 26.167-71.432 33.333-129.828 83.585-134.562 105.333-6.25 28.725 23.169 27.083 31.849 26.01-4.293 4.198-8.712 7.229-13.163 8.554-8.522 2.589-17.203-1.136-25.41-14.993C38.128 156.899 132.95 100.65 204.35 66.749c22.948-10.922 43.465-19.507 56.817-24.59 5.209-1.988 9.312-3.44 12.058-4.292 31.786-9.785 90.434-14.646 89.803 41.792-.41 38.604-51.735 126.103-83.332 180.237-.095.19-.22.41-.347.6-14.394 24.684-24.59 42.297-23.832 44.98.537 1.894 9.785-5.587 23.832-18.434 2.241-2.052 4.64-4.23 7.102-6.534 51.83-48.2 150.503-148.545 150.503-148.545l9.47 19.412 2.146 4.42c-43.37 66.57-59.88 125.85-56.218 166.158 3.693 40.34 68.433 35.448 177.175-74.399 12.437-12.563 22.79-24.59 31.44-36.047 0-.032.031-.063.031-.063 65.466-87.089 29.103-140.592 27.84-142.39 4.072 3.156 7.418 6.596 10.228 10.384a.098.098 0 0 1 .031.063c57.922 78.976-156.658 285.665-227.806 269.504z" fill="#c1c3c2" filter="url(#a)"/><path d="M271.636 27.966v76.006h-80.395v-6.924h73.44v-67.63c2.319-.555 4.637-1.02 6.955-1.452z" fill="#794b65"/><path d="M191.241 23.608v24.078c22.471-10.694 42.562-19.102 55.637-24.078H191.24zm0 31.435v42.005h73.44v-67.63c-24.912 5.503-49.918 14.62-73.44 25.625z" fill="#bd2d7a"/><path fill="#0b4c68" d="M271.636 128.297v80.364h-80.395v-6.923h73.44v-73.44z"/><path fill="#019de0" d="M191.241 128.3h73.44v73.44h-73.44z"/><path d="M191.241 317.184h8.84c.402-1.546 1.051-3.339 1.886-5.348.216-.494.463-1.02.71-1.576h-11.436v6.924zm73.78-80.364a5.733 5.733 0 0 1-.34.587v25.995c2.195-2.01 4.544-4.142 6.955-6.398V236.82h-6.614zm-.34 73.44h-34.618c-1.669 2.504-3.523 4.884-5.749 6.924h47.322v-53.782c-2.442 2.349-4.76 4.605-6.954 6.707v40.151z" fill="#4a5b2f"/><path d="M191.241 236.82v73.44h11.437c6.83-15.3 23.954-42.16 43.829-73.44h-55.266zm50.104 44.633c.526 1.854 9.582-5.471 23.337-18.051v-25.995c-14.095 24.171-24.079 41.418-23.337 44.046zm-11.282 28.807h34.619v-40.151c-10.571 10.169-18.051 17.247-20.339 19.102-6.027 4.853-9.303 13.57-14.28 21.049z" fill="#94c007"/><path d="M393.882 324.076c-10.787-2.472-18.422-7.48-23.553-14.372-13.445-76.81 44.108-160.45 57.955-179.15l2.102 4.327c-42.47 65.188-58.635 123.235-55.05 162.706 3.617 39.502 67.012 34.711 173.494-72.853 12.178-12.302 22.316-24.078 30.786-35.298 0-.031.03-.062.03-.062 20.617-22.255 51.155-67.32 37.308-129.2 56.718 77.334-153.403 279.728-223.072 263.902z" fill="#06243c"/><path d="M296.085 17.92a383.14 383.14 0 0 0-28.59 5.688c-.928.216-1.855.433-2.813.68-25.779 6.275-50.537 14.991-73.44 25.067C109.887 85.117 51.84 138.158 52.49 162.483c.618 23.924 16.196 28.777 25.284 29.55 4.358-1.299 8.685-4.266 12.889-8.377-8.5 1.05-37.308 2.658-31.188-25.47 4.637-21.296 61.819-70.503 131.766-103.143 23.522-11.004 48.528-20.122 73.44-25.624 2.319-.556 4.637-1.02 6.955-1.453 12.951-2.565 25.871-4.08 38.513-4.358 61.788-1.33 12.518 90.688-38.513 173.215-2.472 3.988-4.914 7.944-7.387 11.838a4755.02 4755.02 0 0 1-17.742 28.159c-19.875 31.28-36.998 58.14-43.83 73.44-.247.556-.494 1.082-.71 1.576.402-.525.834-1.05 1.236-1.576 17.186-22.1 34.433-47.415 50.63-73.44 5.841-9.335 11.498-18.762 17-28.159h.803v-1.39c36.38-62.499 64.477-123.73 69.422-150.188 8.16-43.86-44.973-39.162-44.973-39.162zm320.869 42.254s0-.031-.031-.062c-2.75-3.71-6.027-7.079-10.015-10.17 1.237 1.762 36.844 54.154-27.262 139.432 20.617-22.255 51.155-67.32 37.308-129.2z" fill="#5991aa"/><path d="M410.017 138.88c.03.619-.34 1.67-1.175 3.184-14.28 26.49-68.093 127.964-38.513 167.652-13.445-76.81 44.108-160.45 57.955-179.15l-9.273-19.01s-96.622 98.261-147.375 145.46c-2.41 2.256-4.76 4.389-6.954 6.398-13.755 12.58-22.811 19.905-23.337 18.05-.742-2.627 9.242-19.874 23.337-44.045.123-.185.247-.402.34-.587 30.94-53.01 81.198-138.69 81.6-176.492.618-55.265-56.811-50.505-87.937-40.924-2.689.835-6.707 2.257-11.807 4.204-13.075 4.976-33.166 13.384-55.637 24.078-69.916 33.197-162.768 88.277-138.35 129.664 8.037 13.57 16.537 17.217 24.883 14.682-9.088-.772-24.666-5.625-25.284-29.549-.65-24.325 57.398-77.366 138.751-113.128 22.904-10.076 47.662-18.792 73.44-25.067.959-.247 1.886-.464 2.813-.68a383.234 383.234 0 0 1 28.591-5.687s53.133-4.698 44.973 39.162c-4.945 26.458-33.042 87.69-69.422 150.188v1.39h-.803c-5.502 9.397-11.159 18.824-17 28.159-16.197 26.025-33.444 51.34-50.63 73.44-.402.526-.834 1.051-1.236 1.577-.835 2.009-1.484 3.801-1.886 5.347-.587 1.978-.772 3.554-.494 4.667.247 1.267.989 1.978 2.287 2.071 10.602.865 17.433-2.102 22.44-6.738 2.226-2.04 4.08-4.42 5.75-6.924 4.976-7.48 8.252-16.196 14.28-21.05 2.287-1.854 9.767-8.932 20.338-19.1 2.194-2.103 4.512-4.36 6.954-6.708 47.291-45.591 137.917-133.62 138.38-124.533zm-41.4 214.562l-7.813 30.257h-.461l-9.282-30.257h-14.232l-9.669 30.257h-.54l-7.425-30.257h-13.846l11.063 39.264h19.644l7.5-24.606h.544l6.96 24.606h19.877l11.525-39.264h-13.846zm28.614 0l-15.466 39.264h14.386l2.475-6.77h18.485l2.705 6.77h14.078l-15.702-39.264h-20.96zm4.332 24.902l6.342-17.072 6.498 17.072h-12.84zm49.81-24.902h-13.842v39.264h35.5V383.7h-21.657v-30.257zm40.294 0h-13.842v39.264h35.5V383.7h-21.658v-30.257zm67.524 3.356c-1.754-1.138-4.205-2-7.35-2.59-3.145-.588-6.934-.884-11.368-.884h-1.548c-2.475.04-4.872.226-7.193.562a41.7 41.7 0 0 0-6.65 1.5c-2.167.628-3.906 1.657-5.222 3.09-1.313 1.434-2.203 3.249-2.668 5.446-.052.196-.09.392-.115.589a5.072 5.072 0 0 1-.118.588c-.051.236-.09.45-.114.646-.028.196-.04.393-.04.589l-.154 1.177a9.104 9.104 0 0 0-.078 1.177c0 .2-.012.393-.04.589-.023.199-.036.392-.036.588v6.478c0 .706.013 1.404.037 2.089.027.685.066 1.364.117 2.031.052.707.154 1.392.308 2.059.157.667.363 1.334.62 2.001.618 1.648 1.508 3.025 2.667 4.12 1.163 1.102 2.617 1.926 4.371 2.472a35.21 35.21 0 0 0 5.337 1.268 42.6 42.6 0 0 0 5.723.501h.619c.205 0 .437.018.697.058h1.932c.205 0 .437.018.697.06h1.238c5.825 0 10.44-.462 13.845-1.385 3.402-.921 5.618-2.325 6.65-4.208 1.032-1.884 1.817-4.199 2.36-6.946.54-2.747.813-5.946.813-9.596 0-3.531-.441-6.474-1.317-8.829-.878-2.354-2.218-4.102-4.02-5.24zm-8.817 15.953a3.929 3.929 0 0 0-.079.764v2.122c0 1.687-.169 3.088-.504 4.207-.335 1.117-.812 1.972-1.43 2.56-.62.589-1.676 1.02-3.17 1.295-1.497.275-3.429.414-5.801.414-2.165 0-3.867-.178-5.105-.532-1.237-.353-2.061-.902-2.475-1.648-.362-.706-.646-1.587-.851-2.647-.205-1.06-.308-2.315-.308-3.767v-2.475c.048-2.472.205-4.461.462-5.974.26-1.509.646-2.541 1.162-3.09.513-.55 1.573-.96 3.17-1.235 1.6-.275 3.74-.414 6.42-.414 1.856 0 3.365.157 4.524.471 1.16.314 1.999.767 2.515 1.355.465.628.824 1.422 1.083 2.385.257.96.387 2.089.387 3.384v2.825zm58.317-19.31l.54 29.848h-.54l-14.543-29.847h-23.279v39.264h13.535l-.619-30.197h.62l14.54 30.197h23.435v-39.264h-13.69z" fill="#054372"/><path d="M139.636 368.278h-16.433v-14.836h-12.679v39.264h12.68v-15.421h16.432v15.421h12.678v-39.264h-12.678v14.836zm46.887-.767c-1.275-.785-2.938-1.383-4.992-1.796-2.054-.41-4.475-.616-7.261-.616-3.305 0-6.02.275-8.145.824-2.125.55-3.683 1.374-4.675 2.472-.991 1.1-1.725 2.581-2.195 4.444-.473 1.865-.708 4.093-.708 6.682 0 2.708.306 4.963.92 6.768.613 1.805 1.511 3.16 2.691 4.063 1.227.902 2.95 1.57 5.17 2.001 2.22.432 4.935.649 8.146.649 2.267 0 4.31-.109 6.128-.326 1.817-.214 3.387-.577 4.709-1.09 1.37-.507 2.384-1.43 3.045-2.765.661-1.334.992-3.1.992-5.297h-10.482v.118c-.048.667-.178 1.225-.39 1.678-.212.45-.508.773-.885.969-.426.2-.92.344-1.488.444-.566.096-1.227.145-1.983.145-1.464 0-2.62-.136-3.47-.411-.85-.275-1.417-.667-1.701-1.177-.282-.55-.484-1.208-.6-1.974-.12-.764-.179-1.697-.179-2.795h21.178v-3.119c0-2.51-.319-4.594-.955-6.242-.637-1.648-1.594-2.861-2.87-3.649zm-17.21 8.183c0-.706.058-1.325.176-1.853.117-.532.32-.972.602-1.325.284-.354.78-.62 1.488-.794.708-.178 1.653-.305 2.833-.384l.567.118c.944 0 1.734.088 2.373.266.637.175 1.144.422 1.523.733.377.353.66.797.85 1.325.188.532.283 1.13.283 1.796l-10.696.118zm54.963-8.772c-1.039-.588-2.267-1.038-3.683-1.352-1.416-.314-2.973-.47-4.676-.47-1.18 0-2.242.096-3.187.292a9.635 9.635 0 0 0-2.62.942 7.015 7.015 0 0 0-2.02 1.59 8.768 8.768 0 0 0-1.451 2.295h-.423v-5.002h-10.341v27.49h10.764v-16.01c0-.825.141-1.531.425-2.123a3.35 3.35 0 0 1 1.277-1.412c.564-.354 1.226-.625 1.983-.825a9.983 9.983 0 0 1 2.478-.292c.852 0 1.546.126 2.09.383.542.254.908.616 1.098 1.087.235.47.413.972.531 1.503.118.528.178 1.05.178 1.56v16.128h10.764v-19.249c0-1.57-.26-2.894-.779-3.972-.519-1.08-1.322-1.935-2.408-2.563zm27.694 10.333c0-.008.02-.021.025-.03h-.025v.03zm9.774-1.383a.47.47 0 0 1-.07-.235v-.885a23.493 23.493 0 0 0-.389-3.531 18.6 18.6 0 0 0-.884-3.121c-.38-1.02-1.171-1.775-2.376-2.267-1.201-.49-2.822-.734-4.85-.734-1.039 0-1.96.088-2.762.263-.803.178-1.513.444-2.125.797a7.783 7.783 0 0 0-1.7 1.325 10.79 10.79 0 0 0-1.419 1.793h-.495l.142-4.06h-10.41v27.49h10.763v-16.69c0-.057.025-.127.073-.205v-.353c.093-.432.211-.855.353-1.265.142-.414.356-.815.637-1.208.238-.353.592-.627 1.062-.824.474-.196 1.039-.295 1.703-.295.658 0 1.177.09 1.557.265.378.178.661.44.849.794.19.353.332.706.425 1.06.094.353.166.748.215 1.18v2.001c-.032.026-.037.04-.048.058l9.821.117a1.594 1.594 0 0 1-.072-.47v-1zm4.108-15.717h10.767v-6.713h-10.767v6.713zm0 32.551h10.767v-27.49h-10.767v27.49zm-141.835 41.882a85.901 85.901 0 0 0-1.366 3.833h-.082a69.633 69.633 0 0 0-.673-1.935l-.735-1.935-7.425-18.998h-3.345l9.954 25.153h4.488l9.853-25.153h-3.366l-7.303 19.035zm45.707-11.754c-2.991 0-5 .353-6.028 1.06-1.026.705-1.54 2.085-1.54 4.134h2.837a12.552 12.552 0 0 1-.021-.516c0-1.78 1.753-2.671 5.262-2.671 2.068 0 3.407.299 4.02.893.61.598.917 1.902.917 3.915v2.137l-.062.022c-.68-1.217-2.733-1.827-6.16-1.827-2.883 0-4.875.408-5.976 1.217-1.101.812-1.652 2.279-1.652 4.404 0 3.574 2.461 5.36 7.383 5.36 3.332 0 5.542-.724 6.63-2.173l.06.018-.223 1.899h2.855v-11.627c0-2.433-.57-4.081-1.713-4.947-1.142-.867-3.338-1.298-6.589-1.298zm-.448 15.992c-2 0-3.325-.23-3.978-.692-.652-.459-.978-1.4-.978-2.828 0-1.373.329-2.27.988-2.69.66-.416 2.084-.624 4.274-.624 2.257 0 3.776.238 4.558.718.782.477 1.173 1.413 1.173 2.801 0 2.21-2.012 3.315-6.037 3.315zm39.056 1.88h2.855v-25.153h-2.855v25.153zm46.46-5.325v.553c0 1.204-.344 1.986-1.029 2.348-.688.362-2.18.544-4.48.544-2.417 0-3.96-.38-4.618-1.141-.66-.761-.99-2.53-.99-5.307h14.033v-1.382c0-3.354-.555-5.551-1.672-6.596-1.114-1.044-3.468-1.566-7.057-1.566-3.29 0-5.5.6-6.629 1.805s-1.693 3.561-1.693 7.075c0 3.797.561 6.287 1.681 7.47 1.123 1.187 3.48 1.779 7.07 1.779 3.087 0 5.246-.366 6.477-1.096 1.229-.73 1.844-2.01 1.844-3.843l-.02-.643h-2.917zm-10.045-9.408c.685-.667 2.185-1.002 4.497-1.002 2.297 0 3.795.283 4.489.857.691.57 1.038 1.808 1.038 3.713l.021.827h-11.074c0-2.258.34-3.725 1.029-4.395zm51.734-3.14c-3.454 0-5.615.903-6.487 2.708l-.082-.054.082-2.397h-2.753v17.616h2.855v-10.595c0-3.426 2.008-5.14 6.02-5.14 1.82 0 3.051.26 3.69.782.64.522.96 1.539.96 3.051v11.902h2.856v-11.461c0-2.505-.495-4.202-1.479-5.086-.987-.885-2.873-1.325-5.662-1.325zm50.725 11.516c0 1.941-.293 3.173-.878 3.695-.583.522-1.965.782-4.139.782-2.571 0-4.207-.399-4.908-1.196-.7-.8-1.05-2.66-1.05-5.584 0-2.997.308-4.926.918-5.786.612-.86 1.992-1.29 4.14-1.29 2.232 0 3.72.227 4.468.683.749.453 1.123 1.361 1.123 2.726v.461h2.856c0-2.32-.58-3.903-1.733-4.745-1.156-.842-3.32-1.261-6.487-1.261-3.223 0-5.409.621-6.559 1.868-1.15 1.247-1.723 3.616-1.723 7.106 0 3.721.564 6.178 1.693 7.368 1.129 1.192 3.447 1.787 6.955 1.787 5.466 0 8.2-1.884 8.2-5.657l-.02-.957h-2.856zm31.875-15.901h2.856v-2.895h-2.856v2.895zm0 22.258h2.856V423.09h-2.856v17.616zm46.443-5.325v.553c0 1.204-.345 1.986-1.03 2.348-.688.362-2.18.544-4.48.544-2.417 0-3.96-.38-4.617-1.141-.661-.761-.99-2.53-.99-5.307h14.032v-1.382c0-3.354-.555-5.551-1.672-6.596-1.114-1.044-3.468-1.566-7.057-1.566-3.29 0-5.5.6-6.629 1.805s-1.693 3.561-1.693 7.075c0 3.797.561 6.287 1.681 7.47 1.123 1.187 3.48 1.779 7.07 1.779 3.088 0 5.246-.366 6.477-1.096 1.229-.73 1.845-2.01 1.845-3.843l-.022-.643h-2.915zm-10.046-9.408c.685-.667 2.185-1.002 4.498-1.002 2.297 0 3.794.283 4.488.857.691.57 1.038 1.808 1.038 3.713l.022.827h-11.075c0-2.258.34-3.725 1.03-4.395zm51.734-3.14c-3.453 0-5.615.903-6.487 2.708l-.081-.054.081-2.397h-2.753v17.616h2.856v-10.595c0-3.426 2.007-5.14 6.019-5.14 1.82 0 3.051.26 3.691.782.64.522.96 1.539.96 3.051v11.902h2.855v-11.461c0-2.505-.495-4.202-1.479-5.086-.987-.885-2.873-1.325-5.662-1.325zm46.563 0c-3.453 0-5.615.903-6.487 2.708l-.081-.054.081-2.397h-2.753v17.616h2.856v-10.595c0-3.426 2.007-5.14 6.019-5.14 1.82 0 3.051.26 3.691.782.64.522.96 1.539.96 3.051v11.902h2.856v-11.461c0-2.505-.495-4.202-1.48-5.086-.987-.885-2.873-1.325-5.662-1.325zm50.888 12.548v.553c0 1.204-.344 1.986-1.029 2.348-.688.362-2.18.544-4.48.544-2.417 0-3.96-.38-4.618-1.141-.66-.761-.99-2.53-.99-5.307h14.033v-1.382c0-3.354-.555-5.551-1.672-6.596-1.114-1.044-3.468-1.566-7.057-1.566-3.29 0-5.5.6-6.629 1.805s-1.693 3.561-1.693 7.075c0 3.797.561 6.287 1.681 7.47 1.123 1.187 3.48 1.779 7.07 1.779 3.087 0 5.245-.366 6.477-1.096 1.229-.73 1.844-2.01 1.844-3.843l-.02-.643h-2.917zm-10.045-9.408c.685-.667 2.185-1.002 4.497-1.002 2.297 0 3.795.283 4.489.857.691.57 1.038 1.808 1.038 3.713l.021.827H553.59c0-2.258.34-3.725 1.029-4.395zm52.878 4.802l-2.916-.13-2.306-.111c-1.917-.085-2.877-1.033-2.877-2.838 0-1.189.287-1.943.857-2.257.57-.311 1.917-.468 4.039-.468 2.285 0 3.7.148 4.253.44.55.296.827 1.057.827 2.285h2.856v-.643c0-2.813-2.584-4.22-7.752-4.22-3.224 0-5.376.33-6.456.985-1.081.658-1.621 1.974-1.621 3.954 0 2.089.682 3.462 2.05 4.126 1.367.664 4.219.996 8.557.996 1.862 0 2.792.927 2.792 2.78 0 1.292-.369 2.14-1.111 2.545-.74.404-2.288.607-4.64.607-1.916 0-3.202-.194-3.854-.58-.655-.386-.981-1.156-.981-2.312l-.021-.83h-2.955l-.021.96c0 1.865.6 3.15 1.805 3.851 1.204.697 3.401 1.048 6.598 1.048 3.115 0 5.255-.369 6.426-1.105 1.168-.737 1.754-2.095 1.754-4.072 0-3.182-1.769-4.85-5.303-5.01z" fill="#151316"/><path d="M517.314 82.677c0 22.507-18.231 40.738-40.738 40.738s-40.739-18.231-40.739-40.738c0-11.402 4.692-21.706 12.234-29.099 6.859-6.74 16.123-11.075 26.396-11.58.683-.06 1.396-.06 2.109-.06s1.425 0 2.108.06c10.273.505 19.537 4.84 26.396 11.58 7.542 7.393 12.234 17.697 12.234 29.099z" fill="#c1c3c2" filter="url(#a)"/><linearGradient id="b" gradientUnits="userSpaceOnUse" x1="466.48" y1="21.099" x2="466.48" y2="102.576"><stop offset="0" stop-color="#8ac5eb"/><stop offset=".117" stop-color="#81bce3"/><stop offset=".313" stop-color="#67a3ce"/><stop offset=".56" stop-color="#3e7aab"/><stop offset=".803" stop-color="#0f4c83"/><stop offset="1" stop-color="#215d92"/></linearGradient><path d="M507.219 61.838c0 22.507-18.232 40.738-40.739 40.738s-40.738-18.231-40.738-40.738c0-11.402 4.691-21.706 12.233-29.1 6.86-6.74 16.123-11.074 26.397-11.58.683-.059 1.396-.059 2.108-.059s1.425 0 2.108.06c10.274.505 19.538 4.84 26.397 11.58 7.542 7.393 12.234 17.697 12.234 29.099z" fill="url(#b)"/><path d="M497.123 39.539c0 10.184-13.718 18.409-30.643 18.409s-30.643-8.225-30.643-18.41c0-2.405.772-4.69 2.138-6.8 6.86-6.74 16.123-11.074 26.397-11.58.683-.059 1.396-.059 2.108-.059s1.425 0 2.108.06c10.274.505 19.538 4.84 26.397 11.58 1.366 2.108 2.138 4.394 2.138 6.8z" opacity=".42" fill="#8ac5eb"/></svg>